HIERARCHY
ROOT Bip001_Pelvis
{
  OFFSET 34.4345 95.6767 -26.8758
  CHANNELS 6 Xposition Yposition Zposition Zrotation Xrotation Yrotation
  JOINT Bip001_Spine
  {
    OFFSET 1.4188e-005 10.2191 -0.0116013
    CHANNELS 3 Zrotation Xrotation Yrotation
    JOINT Bip001_L_Thigh
    {
      OFFSET 11.0458 -10.2192 0.0116197
      CHANNELS 3 Zrotation Xrotation Yrotation
      JOINT Bip001_L_Calf
      {
        OFFSET -0.707118 -44.0221 0.360014
        CHANNELS 3 Zrotation Xrotation Yrotation
        JOINT Bip001_L_Foot
        {
          OFFSET -0.651902 -40.5938 -3.56146
          CHANNELS 3 Zrotation Xrotation Yrotation
          JOINT Bip001_L_Toe0
          {
            OFFSET 0.0530839 -10.2181 13.1504
            CHANNELS 3 Zrotation Xrotation Yrotation
            End Site
            {
              OFFSET -1.02532e-005 0 7.55606
            }
          }
        }
      }
    }
    JOINT Bip001_R_Thigh
    {
      OFFSET -11.0458 -10.2191 0.0115893
      CHANNELS 3 Zrotation Xrotation Yrotation
      JOINT Bip001_R_Calf
      {
        OFFSET 0.706994 -44.0221 0.35984
        CHANNELS 3 Zrotation Xrotation Yrotation
        JOINT Bip001_R_Foot
        {
          OFFSET 0.651786 -40.5938 -3.5613
          CHANNELS 3 Zrotation Xrotation Yrotation
          JOINT Bip001_R_Toe0
          {
            OFFSET -0.0531479 -10.2181 13.1504
            CHANNELS 3 Zrotation Xrotation Yrotation
            End Site
            {
              OFFSET -1.02894e-005 0 7.55606
            }
          }
        }
      }
    }
    JOINT Bip001_Spine1
    {
      OFFSET 1.87041e-005 14.5736 1.08638
      CHANNELS 3 Zrotation Xrotation Yrotation
      JOINT Bip001_Spine2
      {
        OFFSET 2.24614e-005 14.5058 -1.69078
        CHANNELS 3 Zrotation Xrotation Yrotation
        JOINT Bip001_Neck
        {
          OFFSET 2.20278e-005 15.3945 -0.489414
          CHANNELS 3 Zrotation Xrotation Yrotation
          JOINT Bip001_L_Clavicle
          {
            OFFSET 6.06036 -0.000579998 0.00836775
            CHANNELS 3 Zrotation Xrotation Yrotation
            JOINT Bip001_L_UpperArm
            {
              OFFSET 11.5509 -0.0600302 0.00193952
              CHANNELS 3 Zrotation Xrotation Yrotation
              JOINT Bip001_L_Forearm
              {
                OFFSET 25.9523 0.0806089 -2.15551
                CHANNELS 3 Zrotation Xrotation Yrotation
                JOINT Bip001_L_Hand
                {
                  OFFSET 32.2475 0.153767 1.63968
                  CHANNELS 3 Zrotation Xrotation Yrotation
                  JOINT Bip001_L_Finger0
                  {
                    OFFSET 6.04639 -2.20976 5.90322
                    CHANNELS 3 Zrotation Xrotation Yrotation
                    End Site
                    {
                      OFFSET 4.22375 -1.43895 0.606485
                    }
                  }
                  JOINT Bip001_L_Finger1
                  {
                    OFFSET 11.0826 -0.704819 -0.198153
                    CHANNELS 3 Zrotation Xrotation Yrotation
                    End Site
                    {
                      OFFSET 6.20027 -0.397518 -0.0787166
                    }
                  }
                }
              }
            }
          }
          JOINT Bip001_R_Clavicle
          {
            OFFSET -6.06037 -0.000563197 0.00835105
            CHANNELS 3 Zrotation Xrotation Yrotation
            JOINT Bip001_R_UpperArm
            {
              OFFSET -11.5509 -0.0599978 0.00190698
              CHANNELS 3 Zrotation Xrotation Yrotation
              JOINT Bip001_R_Forearm
              {
                OFFSET -25.9523 0.0806822 -2.15589
                CHANNELS 3 Zrotation Xrotation Yrotation
                JOINT Bip001_R_Hand
                {
                  OFFSET -32.2475 0.153859 1.63989
                  CHANNELS 3 Zrotation Xrotation Yrotation
                  JOINT Bip001_R_Finger0
                  {
                    OFFSET -6.04641 -2.20976 5.90317
                    CHANNELS 3 Zrotation Xrotation Yrotation
                    End Site
                    {
                      OFFSET -4.22376 -1.43895 0.60647
                    }
                  }
                  JOINT Bip001_R_Finger1
                  {
                    OFFSET -11.0826 -0.704794 -0.198182
                    CHANNELS 3 Zrotation Xrotation Yrotation
                    End Site
                    {
                      OFFSET -6.20028 -0.397504 -0.0787333
                    }
                  }
                }
              }
            }
          }
          JOINT Bip001_Head
          {
            OFFSET 1.09673e-005 11.2744 2.05948
            CHANNELS 3 Zrotation Xrotation Yrotation
            End Site
            {
              OFFSET 2.89576e-005 20.8808 -2.77728e-005
            }
          }
        }
      }
    }
  }
}
MOTION
Frames:	8
Frame Time:	0.04
34.1671 95.643 -31.7169 -1.51707 -3.61 -5.72245 0.0124495 2.83718 -0.479881 6.81137 -0.716345 12.5506 -0.769353 10.9553 3.09453 1.64579 -6.34194 0.0689676 1.55026 -4.83643 -0.901319 -3.9276 -3.40033 1.32665 -0.349096 10.9598 1.06769 -4.60007 -7.41805 4.40402 2.72662 -9.09707 2.85652 0.0405634 5.69175 -0.961971 0.0405638 5.69171 -0.961971 2.15312 -0.551882 2.47249 -25.0566 3.7628 -6.04583 -48.0926 44.8652 -0.618839 19.9348 1.55793 -32.589 7.23159 1.41078 -6.29146 -3.18055e-015 3.18055e-015 2.38542e-015 -3.18055e-015 0 1.59028e-015 23.8767 5.91154 13.8862 65.482 26.9967 -11.2361 -31.2904 18.963 18.5142 11.3408 -18.4287 2.79608 -1.59028e-015 6.36111e-015 3.97569e-016 -1.59028e-015 3.18056e-015 -0 -3.13294 -3.77997 3.66958 
34.255 95.6296 -31.7529 -1.64445 -3.69505 -5.82511 0.0361795 2.83711 -0.614127 6.95984 -0.812965 13.0614 -0.852242 11.4305 2.91678 1.69647 -6.65535 0.0700882 1.58636 -4.7998 -0.912444 -3.86568 -3.32099 1.3471 -0.450369 10.8712 1.1278 -4.52063 -7.30847 4.59946 2.76785 -9.2292 2.90357 0.10333 5.69124 -1.23235 0.10333 5.6912 -1.23235 2.27772 -0.684452 2.67381 -25.0498 4.00123 -6.31972 -49.4665 47.2319 1.24618 21.2352 4.11657 -31.2933 5.4881 1.21526 -5.86 8.82781e-032 3.18055e-015 -1.59028e-015 -3.18055e-015 1.59028e-015 -7.95139e-016 23.968 5.84884 13.2182 64.3149 24.3644 -10.638 -33.5513 22.4283 21.1643 11.058 -18.6411 2.58071 3.97569e-015 3.18055e-015 7.95139e-016 2.38542e-015 0 7.95139e-016 -3.04715 -3.72363 3.88541 
34.3314 95.5941 -31.7744 -1.81562 -3.623 -6.30758 0.0917153 2.83446 -0.724712 7.06698 -0.988306 12.7641 -1.01632 11.94 3.79265 1.74796 -6.95528 0.0730397 1.56465 -4.78809 -0.88471 -3.78847 -3.46224 1.7573 -0.462594 10.8454 1.15715 -4.50386 -7.30655 4.73458 2.77386 -9.23201 2.89011 0.219774 5.66752 -1.45666 0.219775 5.66754 -1.45666 2.19476 -0.676727 2.96535 -24.6031 4.07867 -6.6087 -51.9903 48.5072 3.66284 21.1982 4.46561 -30.043 3.42125 1.30818 -5.13606 -9.54166e-015 0 1.98785e-015 -6.36111e-015 -1.59028e-015 3.97569e-016 24.069 5.60525 12.613 62.7718 18.9312 -9.9704 -35.8464 22.2655 23.5078 15.6685 -17.7856 5.67996 1.59028e-015 0 -0 1.59028e-015 6.36111e-015 -0 -2.85248 -4.00213 4.10651 
34.4744 95.5587 -31.6589 -1.6142 -3.89189 -7.1605 0.0674542 2.86745 -0.765788 6.56499 -0.438669 13.3747 -0.857546 11.6907 3.82653 2.27449 -6.68155 0.0759696 1.62275 -5.06455 -0.835687 -4.12016 -3.63699 1.97071 -0.547811 11.4328 1.35264 -4.39128 -7.62376 5.19654 2.8006 -9.32294 2.93427 0.175063 5.73371 -1.53837 0.174308 5.73373 -1.53816 2.00672 -0.535855 3.25052 -24.1969 3.9444 -6.62357 -54.513 48.4581 5.92006 20.1252 3.87005 -28.6989 3.50762 1.34332 -4.1235 3.31043e-032 1.59028e-015 -1.19271e-015 0 0 -0 24.3151 5.23391 12.0409 61.7311 14.9769 -10.7729 -38.4664 22.5358 26.1895 14.1174 -18.248 8.30553 -1.59028e-015 3.18055e-015 -0 -7.95139e-016 0 -0 -2.52222 -4.17345 4.27077 
34.4848 95.5111 -31.5387 -1.73995 -4.14161 -7.8419 0.135892 2.90572 -0.80779 6.56097 -0.153123 13.1893 -1.00666 12.0414 4.67021 2.37439 -6.89855 0.0791061 1.65141 -5.08999 -0.855923 -4.1177 -3.59885 2.11402 -0.652962 11.705 1.47802 -4.33722 -7.82805 5.60622 2.81314 -9.36618 2.95785 0.31344 5.80919 -1.62562 0.31344 5.80917 -1.62563 1.9835 -0.537843 3.49392 -23.9714 3.96489 -6.65399 -57.0533 47.3875 8.02496 18.6185 2.35634 -27.2633 4.51535 1.40108 -4.21757 -0 0 7.95139e-016 3.18055e-015 -1.59028e-015 -0 24.4563 5.00088 11.3692 60.4377 9.54111 -12.0651 -40.7192 21.2407 29.0323 8.98549 -19.2136 11.2469 1.59028e-015 6.36111e-015 1.59028e-015 1.59028e-015 3.18056e-015 1.59028e-015 -2.495 -3.78661 4.50327 
34.4725 95.4871 -31.3794 -1.82079 -4.3785 -8.23839 0.193977 2.91993 -0.900823 6.5633 0.21779 13.3912 -1.08975 12.2321 4.94498 2.04922 -7.35633 0.0828433 1.51724 -4.83644 -0.736636 -4.15692 -3.35109 2.32341 -0.679381 11.7275 1.56108 -4.31406 -7.94004 5.77266 2.85686 -9.50432 3.01005 0.43487 5.83813 -1.81511 0.434872 5.83818 -1.81512 2.02427 -0.547275 3.72757 -23.6943 3.91701 -6.46434 -59.4438 45.9522 10.0682 16.8829 -0.0309407 -26.3376 6.26327 1.15875 -4.39669 6.36111e-015 0 7.95139e-016 8.82782e-032 -3.18056e-015 1.59028e-015 24.8251 4.81447 10.7271 57.7276 1.74568 -13.699 -41.9537 18.9054 33.0029 0.187232 -19.8874 13.4747 -4.77083e-015 3.18055e-015 6.36111e-015 -6.36111e-015 0 6.36111e-015 -2.52818 -3.18097 4.76135 
34.4615 95.4366 -31.264 -1.87159 -4.48212 -8.23482 0.280516 2.90233 -1.07351 6.50723 0.253554 14.2362 -0.947383 12.608 4.04436 2.73853 -7.26806 0.0867232 1.64494 -5.17987 -0.759511 -4.18265 -3.20477 2.4744 -0.737074 11.8512 1.63588 -4.38844 -8.10756 5.68694 2.94003 -9.77513 3.13517 0.616704 5.79884 -2.16542 0.616705 5.79885 -2.16543 2.00358 -0.488718 3.99265 -23.2052 3.77479 -6.25754 -61.9494 44.4696 12.2938 15.9262 -1.69778 -26.2466 7.62544 0.958148 -3.74617 3.18055e-015 0 2.38542e-015 -0 0 3.18055e-015 25.2345 4.51312 9.98927 54.4654 -6.76888 -16.0078 -42.1559 14.1476 39.5915 -11.1351 -17.4236 11.3619 -0 0 6.36111e-015 7.95139e-016 -1.59028e-015 3.18055e-015 -2.741 -2.62566 5.06827 
34.4641 95.3675 -31.2447 -1.83583 -4.34721 -7.69035 0.4081 2.84707 -1.29431 6.4843 -0.248583 13.7206 -1.07621 13.3049 3.98035 3.07794 -7.50564 0.0903515 1.53134 -5.34192 -0.52639 -4.31547 -3.30496 2.45203 -0.705235 12.1442 1.61051 -4.60211 -8.29549 5.24213 3.02961 -10.0931 3.3095 0.882208 5.68411 -2.61379 0.882211 5.68413 -2.61378 2.04471 -0.384781 4.08464 -22.8465 3.59665 -6.13153 -64.1472 43.4461 14.4051 15.4438 -2.65903 -26.4573 8.25359 0.800613 -3.52693 -3.18055e-015 6.36111e-015 -0 0 3.18056e-015 -0 24.945 4.06478 9.06462 50.4451 -17.4026 -19.0299 -39.7748 8.39365 50.066 -18.7063 -17.1792 9.74834 2.38542e-015 -3.18055e-015 6.36111e-015 -3.18055e-015 -4.77083e-015 6.36111e-015 -3.24441 -2.33741 5.28008 
